<svg width="28" height="28" viewBox="0 0 28 28" fill="none" xmlns="http://www.w3.org/2000/svg">
<path fill-rule="evenodd" clip-rule="evenodd" d="M13.2975 8.69554C12.1842 7.19774 10.3243 6.45185 8.48466 6.76546C6.64501 7.07907 5.13726 8.39906 4.58316 10.1811C4.0302 11.9595 4.52048 13.8974 5.85177 15.1988C5.85639 15.2032 5.86096 15.2077 5.86551 15.2122L13.9998 23.2684L22.1341 15.2122C22.1555 15.1909 22.1779 15.1709 22.2009 15.1523C23.4792 13.8501 23.9405 11.9477 23.395 10.2012C22.8405 8.42564 21.3389 7.10982 19.5059 6.79328C17.6729 6.47674 15.817 7.21273 14.6991 8.69945C14.5333 8.91996 14.2732 9.04936 13.9973 9.04859C13.7214 9.04782 13.462 8.91698 13.2975 8.69554ZM23.2953 16.5251L14.6155 25.1216C14.2745 25.4593 13.7251 25.4593 13.3841 25.1216L4.6424 16.4638C4.64143 16.4629 4.64047 16.462 4.6395 16.461C2.82999 14.7002 2.16242 12.0725 2.91208 9.6615C3.66174 7.25051 5.70164 5.46465 8.19057 5.04035C10.3266 4.67621 12.4829 5.36786 14.0034 6.85223C15.5265 5.38183 17.6765 4.70146 19.8037 5.06881C22.2836 5.49707 24.3152 7.2773 25.0654 9.67949C25.8157 12.0817 25.1583 14.7017 23.3629 16.4652C23.3411 16.4865 23.3186 16.5065 23.2953 16.5251Z" fill="#5F5F5F"/>
</svg>