<svg xmlns="http://www.w3.org/2000/svg" width="140" height="34" viewBox="0 0 140 34" fill="none">
<path d="M25.0087 30.0102H16.2273L8.18468 20.7456C7.75839 21.2287 0.682056 29.2145 0 29.9534V20.9446C4.09234 16.3407 10.0035 9.63379 14.0674 5.02991H22.0247L12.3623 15.9997L25.0087 30.0102Z" fill="white"/>
<path d="M5.62589 0V9.34986C4.85857 10.2024 0.879914 14.6074 0.0273438 15.5452L0.0557623 0H5.62589Z" fill="#FF6600"/>
<path d="M32.9139 25.3663H45.9525L45.5649 20.8204H33.3367L32.9139 25.3663ZM39.3627 14.5125L42.8514 22.5119L42.64 24.0272L45.6001 30.1236H52.3661L39.3627 3.9054L26.3945 30.1236H33.1253L36.1911 23.7805L35.9092 22.4767L39.3627 14.5125Z" fill="white"/>
<path d="M69.585 14.9706L74.6948 29.0665H81.5665L69.585 4.22255L57.5683 29.0665H64.4401L69.585 14.9706ZM77.6901 30.1236V34H83.6104V25.0139H55.5244V34H61.4447V30.1236H77.6901Z" fill="white"/>
<path d="M88.5029 5.45594V30.1236H94.4584V5.45594H88.5029ZM92.2383 10.3542H97.0661C98.2643 10.3542 99.204 10.6244 99.8853 11.1647C100.567 11.7051 100.907 12.4921 100.907 13.5258C100.907 14.536 100.567 15.3113 99.8853 15.8516C99.204 16.392 98.2643 16.6621 97.0661 16.6621H92.2383V21.5604H97.0661C99.157 21.5604 100.907 21.2433 102.317 20.609C103.75 19.9511 104.831 19.0232 105.559 17.825C106.287 16.6034 106.651 15.1703 106.651 13.5258C106.651 11.8343 106.287 10.3895 105.559 9.19133C104.831 7.99319 103.75 7.07696 102.317 6.44264C100.907 5.78484 99.157 5.45594 97.0661 5.45594H92.2383V10.3542Z" fill="white"/>
<path d="M111.164 5.45594V30.1236H117.119V5.45594H111.164ZM114.899 18.9175H119.727C120.526 18.9175 121.207 19.0349 121.771 19.2698C122.358 19.5048 122.804 19.8572 123.11 20.327C123.415 20.7969 123.568 21.3725 123.568 22.0538C123.568 22.7351 123.415 23.3224 123.11 23.8158C122.804 24.2856 122.358 24.638 121.771 24.8729C121.207 25.1079 120.526 25.2253 119.727 25.2253H114.899V30.1236H119.727C121.818 30.1236 123.568 29.8065 124.978 29.1722C126.411 28.5144 127.491 27.5864 128.22 26.3882C128.948 25.1666 129.312 23.7218 129.312 22.0538C129.312 20.3858 128.948 18.9527 128.22 17.7545C127.491 16.5564 126.411 15.6402 124.978 15.0059C123.568 14.3481 121.818 14.0192 119.727 14.0192H114.899V18.9175Z" fill="white"/>
<path d="M133.57 29.7832V20.8881L139.632 14.0674V29.7832H133.57Z" fill="#FF6600"/>
<path d="M133.57 15.4884V5.11542H139.538V9.23618L133.57 15.4884Z" fill="white"/>
</svg>