<svg width="28" height="28" viewBox="0 0 28 28" fill="none" xmlns="http://www.w3.org/2000/svg">
<path fill-rule="evenodd" clip-rule="evenodd" d="M12.1435 6.56673C12.2514 6.4967 12.3397 6.40558 12.4054 6.30156C12.4963 6.1578 12.5441 5.9894 12.5412 5.81792C12.5494 5.01961 13.1992 4.375 13.9994 4.375C14.8048 4.375 15.4578 5.02792 15.4578 5.83333C15.4578 6.17169 15.6528 6.47972 15.9587 6.62436C18.3904 7.77417 19.9911 10.169 20.1244 12.8544V16.3333C20.1244 16.3685 20.1265 16.4036 20.1308 16.4385C20.2421 17.3579 20.5797 18.2208 21.0979 18.9583H6.90099C7.41915 18.2208 7.75679 17.3579 7.86809 16.4385C7.87231 16.4036 7.87443 16.3685 7.87443 16.3333V12.8544C8.0075 10.1751 9.60117 7.78511 12.0235 6.63225C12.0654 6.6135 12.1055 6.59155 12.1435 6.56673ZM10.8401 5.27168C8.07242 6.77498 6.27421 9.62182 6.12539 12.7923C6.12475 12.806 6.12443 12.8197 6.12443 12.8333V16.2778C5.96652 17.4525 5.26797 18.487 4.23494 19.0719C3.88914 19.2677 3.71872 19.672 3.81997 20.0563C3.92122 20.4405 4.26871 20.7083 4.6661 20.7083H23.3328C23.7302 20.7083 24.0776 20.4405 24.1789 20.0563C24.2801 19.672 24.1097 19.2677 23.7639 19.0719C22.7309 18.487 22.0323 17.4525 21.8744 16.2778V12.8333C21.8744 12.8197 21.8741 12.806 21.8735 12.7923C21.7247 9.62182 19.9264 6.77498 17.1588 5.27168C16.8932 3.76756 15.5797 2.625 13.9994 2.625C12.4191 2.625 11.1057 3.76756 10.8401 5.27168Z" fill="#5F5F5F"/>
<path fill-rule="evenodd" clip-rule="evenodd" d="M10.5 18.9583C10.9832 18.9583 11.375 19.3501 11.375 19.8333V21C11.375 22.4497 12.5503 23.625 14 23.625C15.4497 23.625 16.625 22.4497 16.625 21V19.8333C16.625 19.3501 17.0168 18.9583 17.5 18.9583C17.9832 18.9583 18.375 19.3501 18.375 19.8333V21C18.375 23.4162 16.4162 25.375 14 25.375C11.5838 25.375 9.625 23.4162 9.625 21V19.8333C9.625 19.3501 10.0168 18.9583 10.5 18.9583Z" fill="#5F5F5F"/>
</svg>
