<svg xmlns="http://www.w3.org/2000/svg" width="20" height="20" viewBox="0 0 20 20" fill="none">
  <path fill-rule="evenodd" clip-rule="evenodd" d="M1.875 17.5C1.875 17.1548 2.15482 16.875 2.5 16.875H17.5C17.8452 16.875 18.125 17.1548 18.125 17.5C18.125 17.8452 17.8452 18.125 17.5 18.125H2.5C2.15482 18.125 1.875 17.8452 1.875 17.5Z" fill="white"/>
  <path fill-rule="evenodd" clip-rule="evenodd" d="M1.875 17.5C1.875 17.1548 2.15482 16.875 2.5 16.875H17.5C17.8452 16.875 18.125 17.1548 18.125 17.5C18.125 17.8452 17.8452 18.125 17.5 18.125H2.5C2.15482 18.125 1.875 17.8452 1.875 17.5Z" fill="black" fill-opacity="0.87"/>
  <path fill-rule="evenodd" clip-rule="evenodd" d="M11.1613 1.96834C11.3455 2.08222 11.4577 2.28339 11.4577 2.5V17.5C11.4577 17.8452 11.1779 18.125 10.8327 18.125C10.4875 18.125 10.2077 17.8452 10.2077 17.5V3.51127L4.79102 6.2196V17.5C4.79102 17.8452 4.51119 18.125 4.16602 18.125C3.82084 18.125 3.54102 17.8452 3.54102 17.5V5.83333C3.54102 5.5966 3.67477 5.38019 3.88651 5.27432L10.5532 1.94098C10.7469 1.84411 10.977 1.85446 11.1613 1.96834Z" fill="white"/>
  <path fill-rule="evenodd" clip-rule="evenodd" d="M11.1613 1.96834C11.3455 2.08222 11.4577 2.28339 11.4577 2.5V17.5C11.4577 17.8452 11.1779 18.125 10.8327 18.125C10.4875 18.125 10.2077 17.8452 10.2077 17.5V3.51127L4.79102 6.2196V17.5C4.79102 17.8452 4.51119 18.125 4.16602 18.125C3.82084 18.125 3.54102 17.8452 3.54102 17.5V5.83333C3.54102 5.5966 3.67477 5.38019 3.88651 5.27432L10.5532 1.94098C10.7469 1.84411 10.977 1.85446 11.1613 1.96834Z" fill="black" fill-opacity="0.87"/>
  <path fill-rule="evenodd" clip-rule="evenodd" d="M10.314 5.48663C10.5055 5.19943 10.8935 5.12182 11.1807 5.31329L16.1807 8.64662C16.3546 8.76254 16.4591 8.95768 16.4591 9.16665V17.5C16.4591 17.8452 16.1792 18.125 15.8341 18.125C15.4889 18.125 15.2091 17.8452 15.2091 17.5V9.50114L10.4874 6.35335C10.2002 6.16188 10.1225 5.77384 10.314 5.48663Z" fill="white"/>
  <path fill-rule="evenodd" clip-rule="evenodd" d="M10.314 5.48663C10.5055 5.19943 10.8935 5.12182 11.1807 5.31329L16.1807 8.64662C16.3546 8.76254 16.4591 8.95768 16.4591 9.16665V17.5C16.4591 17.8452 16.1792 18.125 15.8341 18.125C15.4889 18.125 15.2091 17.8452 15.2091 17.5V9.50114L10.4874 6.35335C10.2002 6.16188 10.1225 5.77384 10.314 5.48663Z" fill="black" fill-opacity="0.87"/>
  <path fill-rule="evenodd" clip-rule="evenodd" d="M7.5 6.875C7.84518 6.875 8.125 7.15482 8.125 7.5V7.50833C8.125 7.85351 7.84518 8.13333 7.5 8.13333C7.15482 8.13333 6.875 7.85351 6.875 7.50833V7.5C6.875 7.15482 7.15482 6.875 7.5 6.875Z" fill="white"/>
  <path fill-rule="evenodd" clip-rule="evenodd" d="M7.5 6.875C7.84518 6.875 8.125 7.15482 8.125 7.5V7.50833C8.125 7.85351 7.84518 8.13333 7.5 8.13333C7.15482 8.13333 6.875 7.85351 6.875 7.50833V7.5C6.875 7.15482 7.15482 6.875 7.5 6.875Z" fill="black" fill-opacity="0.87"/>
  <path fill-rule="evenodd" clip-rule="evenodd" d="M7.5 9.375C7.84518 9.375 8.125 9.65482 8.125 10V10.0083C8.125 10.3535 7.84518 10.6333 7.5 10.6333C7.15482 10.6333 6.875 10.3535 6.875 10.0083V10C6.875 9.65482 7.15482 9.375 7.5 9.375Z" fill="white"/>
  <path fill-rule="evenodd" clip-rule="evenodd" d="M7.5 9.375C7.84518 9.375 8.125 9.65482 8.125 10V10.0083C8.125 10.3535 7.84518 10.6333 7.5 10.6333C7.15482 10.6333 6.875 10.3535 6.875 10.0083V10C6.875 9.65482 7.15482 9.375 7.5 9.375Z" fill="black" fill-opacity="0.87"/>
  <path fill-rule="evenodd" clip-rule="evenodd" d="M7.5 11.875C7.84518 11.875 8.125 12.1548 8.125 12.5V12.5083C8.125 12.8535 7.84518 13.1333 7.5 13.1333C7.15482 13.1333 6.875 12.8535 6.875 12.5083V12.5C6.875 12.1548 7.15482 11.875 7.5 11.875Z" fill="white"/>
  <path fill-rule="evenodd" clip-rule="evenodd" d="M7.5 11.875C7.84518 11.875 8.125 12.1548 8.125 12.5V12.5083C8.125 12.8535 7.84518 13.1333 7.5 13.1333C7.15482 13.1333 6.875 12.8535 6.875 12.5083V12.5C6.875 12.1548 7.15482 11.875 7.5 11.875Z" fill="black" fill-opacity="0.87"/>
  <path fill-rule="evenodd" clip-rule="evenodd" d="M7.5 14.375C7.84518 14.375 8.125 14.6548 8.125 15V15.0083C8.125 15.3535 7.84518 15.6333 7.5 15.6333C7.15482 15.6333 6.875 15.3535 6.875 15.0083V15C6.875 14.6548 7.15482 14.375 7.5 14.375Z" fill="white"/>
  <path fill-rule="evenodd" clip-rule="evenodd" d="M7.5 14.375C7.84518 14.375 8.125 14.6548 8.125 15V15.0083C8.125 15.3535 7.84518 15.6333 7.5 15.6333C7.15482 15.6333 6.875 15.3535 6.875 15.0083V15C6.875 14.6548 7.15482 14.375 7.5 14.375Z" fill="black" fill-opacity="0.87"/>
</svg>