<svg width="48" height="48" viewBox="0 0 48 48" fill="none" xmlns="http://www.w3.org/2000/svg">
<rect x="0.5" y="0.5" width="47" height="47" rx="23.5" fill="white"/>
<path d="M21.7227 32L20.3262 28.0352H14.8672L13.4707 32H11L16.3125 17.6641H18.9102L24.2129 32H21.7227ZM19.7207 26.0234L18.3633 22.1172C18.3112 21.9479 18.2363 21.7103 18.1387 21.4043C18.041 21.0918 17.9434 20.776 17.8457 20.457C17.748 20.1315 17.6667 19.8581 17.6016 19.6367C17.5365 19.9036 17.4551 20.2031 17.3574 20.5352C17.2663 20.8607 17.1751 21.1667 17.084 21.4531C16.9993 21.7396 16.9342 21.9609 16.8887 22.1172L15.5215 26.0234H19.7207ZM26.0977 32V17.7227H34.8086V19.7051H28.4414V23.4941H30.1504C31.5046 23.4941 32.5918 23.6732 33.4121 24.0312C34.2324 24.3828 34.8249 24.8743 35.1895 25.5059C35.554 26.1374 35.7363 26.8633 35.7363 27.6836C35.7363 29.0443 35.3034 30.1055 34.4375 30.8672C33.5781 31.6224 32.1816 32 30.248 32H26.0977ZM28.4414 30.0469H30.1016C31.2018 30.0469 32.0189 29.8613 32.5527 29.4902C33.0866 29.1126 33.3535 28.5104 33.3535 27.6836C33.3535 27.1042 33.2233 26.6549 32.9629 26.3359C32.7025 26.0104 32.3118 25.7826 31.791 25.6523C31.2767 25.5221 30.6257 25.457 29.8379 25.457H28.4414V30.0469Z" fill="black"/>
<path d="M21.7227 32L20.3262 28.0352H14.8672L13.4707 32H11L16.3125 17.6641H18.9102L24.2129 32H21.7227ZM19.7207 26.0234L18.3633 22.1172C18.3112 21.9479 18.2363 21.7103 18.1387 21.4043C18.041 21.0918 17.9434 20.776 17.8457 20.457C17.748 20.1315 17.6667 19.8581 17.6016 19.6367C17.5365 19.9036 17.4551 20.2031 17.3574 20.5352C17.2663 20.8607 17.1751 21.1667 17.084 21.4531C16.9993 21.7396 16.9342 21.9609 16.8887 22.1172L15.5215 26.0234H19.7207ZM26.0977 32V17.7227H34.8086V19.7051H28.4414V23.4941H30.1504C31.5046 23.4941 32.5918 23.6732 33.4121 24.0312C34.2324 24.3828 34.8249 24.8743 35.1895 25.5059C35.554 26.1374 35.7363 26.8633 35.7363 27.6836C35.7363 29.0443 35.3034 30.1055 34.4375 30.8672C33.5781 31.6224 32.1816 32 30.248 32H26.0977ZM28.4414 30.0469H30.1016C31.2018 30.0469 32.0189 29.8613 32.5527 29.4902C33.0866 29.1126 33.3535 28.5104 33.3535 27.6836C33.3535 27.1042 33.2233 26.6549 32.9629 26.3359C32.7025 26.0104 32.3118 25.7826 31.791 25.6523C31.2767 25.5221 30.6257 25.457 29.8379 25.457H28.4414V30.0469Z" fill="white" fill-opacity="0.6"/>
<rect x="0.5" y="0.5" width="47" height="47" rx="23.5" stroke="#E6E6E6"/>
</svg>
