<svg xmlns="http://www.w3.org/2000/svg" width="20" height="20" viewBox="0 0 20 20" fill="none">
<path fill-rule="evenodd" clip-rule="evenodd" d="M1.875 5.83331C1.875 4.10742 3.27411 2.70831 5 2.70831H15C16.7259 2.70831 18.125 4.10742 18.125 5.83331V14.1666C18.125 15.8925 16.7259 17.2916 15 17.2916H5C3.27411 17.2916 1.875 15.8925 1.875 14.1666V5.83331ZM5 3.95831C3.96447 3.95831 3.125 4.79778 3.125 5.83331V14.1666C3.125 15.2022 3.96447 16.0416 5 16.0416H15C16.0355 16.0416 16.875 15.2022 16.875 14.1666V5.83331C16.875 4.79778 16.0355 3.95831 15 3.95831H5Z" fill="white"/>
<path fill-rule="evenodd" clip-rule="evenodd" d="M1.875 5.83331C1.875 4.10742 3.27411 2.70831 5 2.70831H15C16.7259 2.70831 18.125 4.10742 18.125 5.83331V14.1666C18.125 15.8925 16.7259 17.2916 15 17.2916H5C3.27411 17.2916 1.875 15.8925 1.875 14.1666V5.83331ZM5 3.95831C3.96447 3.95831 3.125 4.79778 3.125 5.83331V14.1666C3.125 15.2022 3.96447 16.0416 5 16.0416H15C16.0355 16.0416 16.875 15.2022 16.875 14.1666V5.83331C16.875 4.79778 16.0355 3.95831 15 3.95831H5Z" fill="black" fill-opacity="0.87"/>
<path fill-rule="evenodd" clip-rule="evenodd" d="M7.50065 7.29169C6.92535 7.29169 6.45898 7.75806 6.45898 8.33335C6.45898 8.90865 6.92535 9.37502 7.50065 9.37502C8.07595 9.37502 8.54232 8.90865 8.54232 8.33335C8.54232 7.75806 8.07595 7.29169 7.50065 7.29169ZM5.20898 8.33335C5.20898 7.0677 6.235 6.04169 7.50065 6.04169C8.7663 6.04169 9.79232 7.0677 9.79232 8.33335C9.79232 9.59901 8.7663 10.625 7.50065 10.625C6.235 10.625 5.20898 9.59901 5.20898 8.33335Z" fill="white"/>
<path fill-rule="evenodd" clip-rule="evenodd" d="M7.50065 7.29169C6.92535 7.29169 6.45898 7.75806 6.45898 8.33335C6.45898 8.90865 6.92535 9.37502 7.50065 9.37502C8.07595 9.37502 8.54232 8.90865 8.54232 8.33335C8.54232 7.75806 8.07595 7.29169 7.50065 7.29169ZM5.20898 8.33335C5.20898 7.0677 6.235 6.04169 7.50065 6.04169C8.7663 6.04169 9.79232 7.0677 9.79232 8.33335C9.79232 9.59901 8.7663 10.625 7.50065 10.625C6.235 10.625 5.20898 9.59901 5.20898 8.33335Z" fill="black" fill-opacity="0.87"/>
<path fill-rule="evenodd" clip-rule="evenodd" d="M11.875 6.66669C11.875 6.32151 12.1548 6.04169 12.5 6.04169H14.1667C14.5118 6.04169 14.7917 6.32151 14.7917 6.66669C14.7917 7.01186 14.5118 7.29169 14.1667 7.29169H12.5C12.1548 7.29169 11.875 7.01186 11.875 6.66669Z" fill="white"/>
<path fill-rule="evenodd" clip-rule="evenodd" d="M11.875 6.66669C11.875 6.32151 12.1548 6.04169 12.5 6.04169H14.1667C14.5118 6.04169 14.7917 6.32151 14.7917 6.66669C14.7917 7.01186 14.5118 7.29169 14.1667 7.29169H12.5C12.1548 7.29169 11.875 7.01186 11.875 6.66669Z" fill="black" fill-opacity="0.87"/>
<path fill-rule="evenodd" clip-rule="evenodd" d="M11.875 10C11.875 9.65482 12.1548 9.375 12.5 9.375H14.1667C14.5118 9.375 14.7917 9.65482 14.7917 10C14.7917 10.3452 14.5118 10.625 14.1667 10.625H12.5C12.1548 10.625 11.875 10.3452 11.875 10Z" fill="white"/>
<path fill-rule="evenodd" clip-rule="evenodd" d="M11.875 10C11.875 9.65482 12.1548 9.375 12.5 9.375H14.1667C14.5118 9.375 14.7917 9.65482 14.7917 10C14.7917 10.3452 14.5118 10.625 14.1667 10.625H12.5C12.1548 10.625 11.875 10.3452 11.875 10Z" fill="black" fill-opacity="0.87"/>
<path fill-rule="evenodd" clip-rule="evenodd" d="M5.20898 13.3333C5.20898 12.9881 5.48881 12.7083 5.83398 12.7083H14.1673C14.5125 12.7083 14.7923 12.9881 14.7923 13.3333C14.7923 13.6785 14.5125 13.9583 14.1673 13.9583H5.83398C5.48881 13.9583 5.20898 13.6785 5.20898 13.3333Z" fill="white"/>
<path fill-rule="evenodd" clip-rule="evenodd" d="M5.20898 13.3333C5.20898 12.9881 5.48881 12.7083 5.83398 12.7083H14.1673C14.5125 12.7083 14.7923 12.9881 14.7923 13.3333C14.7923 13.6785 14.5125 13.9583 14.1673 13.9583H5.83398C5.48881 13.9583 5.20898 13.6785 5.20898 13.3333Z" fill="black" fill-opacity="0.87"/>
</svg>